<svg width="19" height="22" viewBox="0 0 19 22" fill="none" xmlns="http://www.w3.org/2000/svg">
<path d="M18.0045 14.7436C17.3927 14.482 16.8715 14.0458 16.5061 13.4897C16.1406 12.9336 15.9472 12.2821 15.9498 11.6166C15.9577 11.0227 16.1168 10.4405 16.4121 9.92499C16.7073 9.40951 17.129 8.97773 17.6373 8.67036C17.7523 8.59928 17.8517 8.50562 17.9295 8.39504C18.0073 8.28446 18.0619 8.15925 18.0899 8.02699C18.1179 7.89472 18.1188 7.75814 18.0926 7.62552C18.0663 7.49289 18.0134 7.36697 17.9371 7.25536C17.4801 6.59082 16.8844 6.03337 16.191 5.62148C15.4977 5.20958 14.7232 4.95306 13.921 4.86963C14.6676 3.68476 15.0064 2.28832 14.8858 0.893046C14.8623 0.639689 14.7415 0.405299 14.5489 0.239061C14.3563 0.0728238 14.1067 -0.012338 13.8526 0.00144634C12.1356 0.154484 10.5439 0.96434 9.40928 2.26219C8.69006 3.09557 8.18254 4.09018 7.9298 5.1616C7.40761 4.98488 6.86091 4.89129 6.30968 4.88426C5.28916 4.91318 4.29343 5.20529 3.41903 5.73227C2.54463 6.25925 1.82123 7.00322 1.31896 7.89205C-0.568745 11.1694 0.586045 16.0805 2.63095 19.0366C3.45126 20.2211 4.68223 21.9995 6.53916 21.9995C6.57578 21.9995 6.61288 21.9995 6.64999 21.9975C7.27217 21.9622 7.88128 21.8045 8.44248 21.5336C8.89073 21.3064 9.38527 21.1854 9.88779 21.1801C10.3604 21.1858 10.8251 21.3015 11.2452 21.518C11.8591 21.8084 12.5281 21.9639 13.2071 21.974C15.1202 21.9379 16.2501 20.2875 17.0753 19.0814C17.7264 18.1235 18.2359 17.0765 18.588 15.973C18.663 15.7323 18.6447 15.4721 18.5365 15.2443C18.4284 15.0165 18.2385 14.8377 18.0045 14.7436ZM10.9234 3.56787C11.4487 2.98036 12.1068 2.527 12.8429 2.24561C12.6818 3.03784 12.3255 3.77733 11.8063 4.39697C11.4538 4.81984 11.025 5.17267 10.5421 5.43705L10.5392 5.43805C10.5109 5.44977 10.4825 5.46051 10.4542 5.47223C10.2677 5.54547 10.0372 5.63629 9.85946 5.69488C10.0311 4.9082 10.3969 4.17699 10.9234 3.56787ZM15.4249 17.9526C14.6212 19.1265 13.9889 19.9595 13.1705 19.9741C12.7749 19.9729 12.3859 19.8725 12.0392 19.6821C11.3688 19.3555 10.6335 19.1839 9.8878 19.1801C9.11618 19.184 8.35504 19.3591 7.65928 19.6928C7.32102 19.8655 6.95198 19.9697 6.57335 19.9994H6.54356C5.73056 19.9994 4.85606 18.7368 4.2755 17.8979C2.82285 15.7983 1.48301 11.6147 3.05235 8.89008C3.38144 8.30048 3.85734 7.80597 4.43389 7.45453C5.01043 7.10309 5.66803 6.90665 6.34287 6.88428L6.37656 6.88328C6.94585 6.93166 7.50176 7.08217 8.01768 7.32762C8.14903 7.37937 8.27843 7.43113 8.40685 7.47898C8.43956 7.49266 8.47325 7.50535 8.50743 7.51609C8.86329 7.65922 9.24129 7.73951 9.62461 7.7534C10.1674 7.71026 10.6975 7.56759 11.1886 7.3325C11.8809 6.99652 12.6418 6.82634 13.4113 6.83543C14.2343 6.86763 15.0244 7.16728 15.6618 7.68895C15.117 8.19081 14.6833 8.80108 14.3885 9.48054C14.0937 10.16 13.9443 10.8936 13.9498 11.6343V11.6353C13.9442 12.5319 14.1661 13.4153 14.5948 14.2028C15.0235 14.9903 15.6449 15.6562 16.401 16.1382C16.1377 16.7744 15.8107 17.3823 15.4249 17.9526Z" fill="#1D1D62"/>
</svg>
