<svg width="138" height="492" viewBox="0 0 138 492" fill="none" xmlns="http://www.w3.org/2000/svg">
<g opacity="0.1">
<path fill-rule="evenodd" clip-rule="evenodd" d="M427.49 6.33336H180.212L103.783 241.523L303.848 386.872L503.919 241.523L427.49 6.33336ZM99.8507 242.795L177.788 3H429.913L507.851 242.795L303.848 391L99.8507 242.795Z" fill="white"/>
<path fill-rule="evenodd" clip-rule="evenodd" d="M433.233 -1.90866H174.463L94.4785 244.121L303.848 396.183L513.223 244.121L433.233 -1.90866ZM91.7548 245.963L90.8507 245.301L172.228 -5H435.479L516.851 245.301L303.848 400L91.7548 245.963Z" fill="white"/>
<path fill-rule="evenodd" clip-rule="evenodd" d="M438.974 -10.1678H168.727L85.197 246.723L303.851 405.494L522.51 246.723L438.974 -10.1678ZM81.8507 247.806L166.665 -13H441.042L525.851 247.806L303.851 409L81.8507 247.806Z" fill="white"/>
<path fill-rule="evenodd" clip-rule="evenodd" d="M531.809 249.331L444.724 -18.4154H162.983L75.8924 249.331L303.851 414.811L531.809 249.331ZM73.6111 250.873L72.8507 250.321L160.806 -20.1078L161.1 -21H446.602L534.851 250.321L304.611 417.453L303.851 418L73.6111 250.873Z" fill="white"/>
<path fill-rule="evenodd" clip-rule="evenodd" d="M450.469 -26.6688H157.233L66.5991 251.926L303.854 424.116L541.102 251.926L450.469 -26.6688ZM63.8507 252.824L155.539 -29H452.163L543.851 252.824L303.854 427L63.8507 252.824Z" fill="white"/>
<path fill-rule="evenodd" clip-rule="evenodd" d="M456.208 -34.9222H151.487L57.2941 254.539L303.851 433.433L550.402 254.539L456.208 -34.9222ZM55.4616 255.777L54.8507 255.339L149.736 -36.2805L149.972 -37H457.73L552.614 254.62L552.851 255.339L303.851 436L55.4616 255.777Z" fill="white"/>
<path fill-rule="evenodd" clip-rule="evenodd" d="M461.959 -42.1755H145.742L48.0006 258.135L303.848 443.738L559.701 258.135L461.959 -42.1755ZM46.3867 259.223L45.8507 258.831L144.203 -43.3669L144.417 -44H463.285L561.649 258.198L561.851 258.831L303.848 446L46.3867 259.223Z" fill="white"/>
<path fill-rule="evenodd" clip-rule="evenodd" d="M568.983 260.741L467.701 -50.4116H140.006L38.7184 260.741L303.851 453.049L568.983 260.741ZM37.3234 261.679L36.8507 261.339L138.681 -51.4475L138.859 -52H468.848L570.672 260.792L570.851 261.339L304.318 454.655L303.851 455L37.3234 261.679Z" fill="white"/>
<path fill-rule="evenodd" clip-rule="evenodd" d="M473.446 -58.6706H134.255L29.4131 263.343L303.848 462.366L578.283 263.343L473.446 -58.6706ZM28.237 264.138L27.8507 263.85L133.143 -59.5338L133.287 -60H474.409L579.707 263.395L579.851 263.85L303.848 464L28.237 264.138Z" fill="white"/>
<path fill-rule="evenodd" clip-rule="evenodd" d="M587.582 265.947L479.191 -66.9238H128.516L20.1192 265.947L303.851 471.665L587.582 265.947ZM19.1736 266.586L18.8507 266.35L127.61 -67.6317L127.732 -68H479.976L588.73 265.982L588.851 266.35L304.174 472.764L303.851 473L19.1736 266.586Z" fill="white"/>
<path fill-rule="evenodd" clip-rule="evenodd" d="M596.87 269.161L484.932 -75.1814H122.769L10.8253 269.161L303.845 481.974L596.87 269.161ZM10.0987 269.651L9.85071 269.479L122.17 -76H485.532L597.851 269.479L304.087 482.821L303.845 483L10.0987 269.651Z" fill="white"/>
<path fill-rule="evenodd" clip-rule="evenodd" d="M116.604 -84L116.54 -83.7982L0.850708 271.981L1.02373 272.108L303.851 492L304.018 491.873L606.851 271.981L606.793 271.785L491.103 -84H116.604ZM1.5255 271.762L117.031 -83.4293H490.676L606.176 271.762L303.851 491.279L1.5255 271.762Z" fill="white"/>
</g>
</svg>
