<svg width="21" height="20" viewBox="0 0 21 20" fill="none" xmlns="http://www.w3.org/2000/svg">
<path opacity="0.1" d="M10.8507 0C5.32786 0 0.850708 4.47715 0.850708 10C0.850708 15.5228 5.32786 20 10.8507 20C16.3736 20 20.8507 15.5228 20.8507 10C20.8443 4.47982 16.3709 0.00642897 10.8507 0Z" fill="white"/>
<path d="M16.6233 6.83313L10.9191 14.574C10.783 14.7545 10.5802 14.8727 10.3561 14.9022C10.132 14.9316 9.90548 14.8698 9.72742 14.7306L5.65408 11.474C5.29464 11.1863 5.23644 10.6617 5.52408 10.3023C5.81173 9.94285 6.3363 9.88465 6.69575 10.1723L10.0924 12.8898L15.2816 5.8473C15.4517 5.59195 15.7485 5.45078 16.0539 5.47983C16.3594 5.50887 16.6242 5.70344 16.7432 5.98627C16.8622 6.26911 16.8161 6.59445 16.6233 6.83313Z" fill="white"/>
</svg>
